<?xml version="1.0" encoding="utf-8"?>
<!-- Generator: Adobe Illustrator 22.1.0, SVG Export Plug-In . SVG Version: 6.00 Build 0)  -->
<svg version="1.1" id="Layer_1" xmlns="http://www.w3.org/2000/svg" xmlns:xlink="http://www.w3.org/1999/xlink" x="0px" y="0px"
	 viewBox="0 0 486 226" style="enable-background:new 0 0 486 226;" xml:space="preserve">
<style type="text/css">
	.st0{fill:#FFFFFF;}
	.st1{fill-rule:evenodd;clip-rule:evenodd;fill:#FFFFFF;}
</style>
<g>
	<polygon class="st0" points="75.7,184.8 78.4,202.4 78.5,202.4 88.5,184.8 92.3,184.8 88,205.2 85.4,205.2 89.6,187.4 89.5,187.4 
		79.1,205.2 76.5,205.2 73.9,187.4 73.8,187.4 70.2,205.2 67.6,205.2 71.9,184.8 	"/>
	<path class="st0" d="M96.3,192.8c0.4-0.6,0.9-1.1,1.4-1.5c0.6-0.4,1.2-0.7,1.9-0.9c0.7-0.2,1.5-0.3,2.3-0.3c0.7,0,1.4,0.1,2.1,0.2
		c0.6,0.1,1.2,0.3,1.7,0.6c0.5,0.3,0.9,0.7,1.2,1.2c0.3,0.5,0.4,1.1,0.4,1.8c0,0.4-0.1,0.9-0.2,1.4c-0.1,0.5-0.2,0.9-0.3,1.3l-0.9,4
		c-0.1,0.3-0.1,0.6-0.2,1c-0.1,0.4-0.2,0.7-0.2,1.1c0,0.3,0.1,0.6,0.2,0.7c0.1,0.1,0.3,0.2,0.5,0.2c0.1,0,0.2,0,0.4-0.1
		c0.1,0,0.3-0.1,0.4-0.1l-0.4,1.8c-0.2,0.1-0.4,0.1-0.7,0.2c-0.3,0.1-0.6,0.1-0.8,0.1c-0.7,0-1.2-0.2-1.5-0.5
		c-0.3-0.4-0.5-0.9-0.4-1.5l-0.1-0.1c-0.5,0.7-1.2,1.2-1.9,1.6c-0.8,0.4-1.8,0.5-3,0.5c-0.6,0-1.2-0.1-1.8-0.2
		c-0.5-0.1-1-0.4-1.4-0.7c-0.4-0.3-0.7-0.8-1-1.3c-0.2-0.5-0.4-1.2-0.4-1.9c0-1.1,0.2-1.9,0.7-2.5c0.5-0.6,1.1-1.1,1.8-1.4
		c0.7-0.3,1.5-0.5,2.4-0.6c0.9-0.1,1.7-0.2,2.5-0.3c0.6-0.1,1.2-0.1,1.7-0.2c0.5-0.1,0.9-0.2,1.2-0.3c0.3-0.2,0.5-0.4,0.7-0.7
		c0.1-0.3,0.2-0.7,0.2-1.2c0-0.4-0.1-0.7-0.3-1c-0.2-0.2-0.4-0.4-0.7-0.6c-0.3-0.1-0.6-0.2-1-0.3c-0.4-0.1-0.7-0.1-1-0.1
		c-0.5,0-0.9,0-1.4,0.1c-0.4,0.1-0.9,0.3-1.2,0.5c-0.4,0.2-0.7,0.5-0.9,0.8c-0.3,0.3-0.4,0.7-0.5,1.2h-2.4
		C95.6,194.1,95.9,193.4,96.3,192.8 M97,202.9c0.5,0.3,1.2,0.5,1.8,0.5c1.9,0,3.3-0.6,4.1-1.9c0.4-0.6,0.7-1.1,0.8-1.8
		c0.1-0.6,0.3-1.3,0.5-2h-0.1c-0.3,0.2-0.8,0.4-1.3,0.5c-0.5,0.1-1.1,0.2-1.7,0.2c-0.6,0.1-1.2,0.1-1.8,0.2
		c-0.6,0.1-1.1,0.2-1.6,0.4c-0.5,0.2-0.9,0.5-1.2,0.8c-0.3,0.4-0.5,0.8-0.5,1.5C96.2,202.1,96.4,202.6,97,202.9"/>
	<path class="st0" d="M115.9,190.5l-0.5,2.2h0.1c0.6-0.9,1.4-1.5,2.3-1.9c0.9-0.4,1.9-0.6,2.9-0.6c1.4,0,2.4,0.3,3.1,0.9
		c0.7,0.6,1,1.6,1,2.9c0,0.3,0,0.7-0.1,1.3c-0.1,0.5-0.2,1.1-0.3,1.6l-1.8,8.4h-2.4l1.9-8.6c0-0.2,0-0.3,0.1-0.5
		c0-0.2,0.1-0.4,0.1-0.6c0-0.2,0.1-0.4,0.1-0.6c0-0.2,0-0.4,0-0.5c0-0.7-0.3-1.2-0.8-1.6c-0.5-0.3-1.1-0.5-1.8-0.5
		c-0.7,0-1.3,0.2-2,0.5c-0.7,0.3-1.2,0.7-1.7,1.2c-0.4,0.4-0.8,0.8-1,1.4c-0.2,0.5-0.4,1.1-0.6,1.7l-1.7,8.2h-2.4l3.1-14.8H115.9z"
		/>
	<path class="st0" d="M137.6,205.2l0.5-2.2H138c-0.6,0.9-1.4,1.5-2.3,1.9c-0.9,0.4-1.9,0.6-2.9,0.6c-1.4,0-2.4-0.3-3.1-0.9
		c-0.7-0.6-1-1.6-1-2.9c0-0.3,0-0.7,0.1-1.3c0.1-0.5,0.2-1.1,0.3-1.6l1.8-8.4h2.4l-1.9,8.6c0,0.1-0.1,0.3-0.1,0.5
		c0,0.2-0.1,0.4-0.1,0.6c0,0.2-0.1,0.4-0.1,0.6c0,0.2,0,0.4,0,0.5c0,0.7,0.2,1.2,0.7,1.6c0.5,0.3,1.1,0.5,1.8,0.5
		c0.7,0,1.3-0.1,1.9-0.4c0.6-0.3,1.1-0.6,1.6-1.1c0.5-0.4,0.8-1,1.2-1.5c0.3-0.6,0.5-1.2,0.7-1.8l1.7-8.2h2.4l-3.1,14.8H137.6z"/>
	<path class="st0" d="M146.7,192.6l0.4-2.1h2.5c0.2-0.7,0.4-1.5,0.5-2.2c0.2-0.7,0.4-1.3,0.7-1.9c0.3-0.5,0.7-1,1.3-1.3
		c0.5-0.3,1.3-0.5,2.3-0.5c0.3,0,0.7,0,1,0c0.3,0,0.7,0.1,1,0.2l-0.4,2.1c-0.2,0-0.4-0.1-0.6-0.1c-0.2,0-0.4,0-0.5,0
		c-0.6,0-1,0.1-1.4,0.3c-0.3,0.2-0.6,0.5-0.8,0.9c-0.2,0.4-0.3,0.7-0.4,1.2c-0.1,0.4-0.2,0.9-0.3,1.3h2.8l-0.4,2.1h-2.9l-2.7,12.6
		h-2.4l2.7-12.6H146.7z"/>
	<path class="st0" d="M158.3,192.8c0.4-0.6,0.9-1.1,1.4-1.5c0.6-0.4,1.2-0.7,1.9-0.9c0.7-0.2,1.5-0.3,2.3-0.3c0.7,0,1.4,0.1,2.1,0.2
		c0.6,0.1,1.2,0.3,1.7,0.6c0.5,0.3,0.9,0.7,1.2,1.2c0.3,0.5,0.4,1.1,0.4,1.8c0,0.4,0,0.9-0.2,1.4c-0.1,0.5-0.2,0.9-0.3,1.3l-0.9,4
		c-0.1,0.3-0.1,0.6-0.2,1c-0.1,0.4-0.2,0.7-0.2,1.1c0,0.3,0.1,0.6,0.2,0.7c0.1,0.1,0.3,0.2,0.5,0.2c0.1,0,0.2,0,0.4-0.1
		c0.1,0,0.3-0.1,0.4-0.1l-0.4,1.8c-0.2,0.1-0.4,0.1-0.7,0.2c-0.3,0.1-0.6,0.1-0.8,0.1c-0.7,0-1.2-0.2-1.5-0.5
		c-0.3-0.4-0.5-0.9-0.4-1.5l-0.1-0.1c-0.5,0.7-1.1,1.2-1.9,1.6c-0.8,0.4-1.8,0.5-3,0.5c-0.6,0-1.2-0.1-1.8-0.2
		c-0.5-0.1-1-0.4-1.4-0.7c-0.4-0.3-0.7-0.8-1-1.3c-0.2-0.5-0.4-1.2-0.4-1.9c0-1.1,0.2-1.9,0.7-2.5c0.5-0.6,1.1-1.1,1.8-1.4
		c0.7-0.3,1.5-0.5,2.4-0.6s1.7-0.2,2.5-0.3c0.6-0.1,1.2-0.1,1.7-0.2c0.5-0.1,0.9-0.2,1.2-0.3c0.3-0.2,0.5-0.4,0.7-0.7
		c0.1-0.3,0.2-0.7,0.2-1.2c0-0.4-0.1-0.7-0.3-1c-0.2-0.2-0.4-0.4-0.7-0.6c-0.3-0.1-0.6-0.2-1-0.3c-0.4-0.1-0.7-0.1-1-0.1
		c-0.5,0-0.9,0-1.4,0.1c-0.4,0.1-0.9,0.3-1.2,0.5c-0.4,0.2-0.7,0.5-0.9,0.8c-0.2,0.3-0.4,0.7-0.5,1.2h-2.4
		C157.6,194.1,157.9,193.4,158.3,192.8 M158.9,202.9c0.5,0.3,1.2,0.5,1.8,0.5c1.9,0,3.3-0.6,4.1-1.9c0.4-0.6,0.7-1.1,0.8-1.8
		c0.1-0.6,0.3-1.3,0.5-2h-0.1c-0.3,0.2-0.8,0.4-1.3,0.5c-0.5,0.1-1.1,0.2-1.7,0.2c-0.6,0.1-1.2,0.1-1.8,0.2
		c-0.6,0.1-1.1,0.2-1.6,0.4c-0.5,0.2-0.9,0.5-1.2,0.8c-0.3,0.4-0.5,0.8-0.5,1.5C158.1,202.1,158.4,202.6,158.9,202.9"/>
	<path class="st0" d="M183.6,193c-0.6-0.5-1.3-0.8-2.3-0.8c-0.9,0-1.8,0.2-2.5,0.6c-0.7,0.4-1.3,1-1.8,1.6c-0.5,0.7-0.8,1.4-1.1,2.2
		c-0.2,0.8-0.4,1.6-0.4,2.4c0,0.6,0.1,1.1,0.2,1.6c0.1,0.5,0.3,1,0.6,1.3c0.3,0.4,0.7,0.7,1.1,0.9c0.5,0.2,1,0.3,1.7,0.3
		c1,0,1.9-0.3,2.7-0.8c0.7-0.6,1.3-1.3,1.6-2.2h2.4c-0.4,1.7-1.2,3-2.4,3.8c-1.2,0.9-2.6,1.3-4.3,1.3c-2,0-3.5-0.6-4.6-1.7
		c-1-1.1-1.5-2.7-1.5-4.7c0-1.2,0.2-2.3,0.5-3.4c0.4-1.1,0.9-2.1,1.6-2.9c0.7-0.9,1.6-1.5,2.6-2c1-0.5,2.2-0.8,3.5-0.8
		c1.7,0,3,0.4,4,1.2c1,0.8,1.5,2.1,1.6,3.8h-2.4C184.4,194.2,184.1,193.5,183.6,193"/>
	<path class="st0" d="M198.9,190.5l-0.5,2.1h-2.9l-1.8,8.7c0,0.2,0,0.3-0.1,0.5c0,0.2,0,0.3,0,0.5c0,0.4,0.1,0.6,0.4,0.8
		c0.3,0.1,0.6,0.2,1,0.2c0.2,0,0.5,0,0.7-0.1c0.2,0,0.5-0.1,0.7-0.2l-0.4,2.2c-0.3,0-0.6,0.1-0.9,0.1c-0.3,0-0.6,0-0.9,0
		c-0.5,0-0.9,0-1.3-0.1c-0.4-0.1-0.7-0.2-1-0.4c-0.3-0.2-0.5-0.4-0.7-0.7c-0.2-0.3-0.3-0.7-0.3-1.2c0-0.2,0-0.4,0-0.6
		c0-0.2,0.1-0.4,0.1-0.6l1.9-9.2h-2.5l0.5-2.1h2.5l0.9-4.4h2.4l-0.9,4.4H198.9z"/>
	<path class="st0" d="M209.7,205.2l0.5-2.2h-0.1c-0.6,0.9-1.4,1.5-2.3,1.9c-0.9,0.4-1.9,0.6-3,0.6c-1.4,0-2.4-0.3-3.1-0.9
		c-0.7-0.6-1-1.6-1-2.9c0-0.3,0-0.7,0.1-1.3c0.1-0.5,0.2-1.1,0.3-1.6l1.8-8.4h2.4l-1.9,8.6c0,0.1-0.1,0.3-0.1,0.5
		c0,0.2-0.1,0.4-0.1,0.6c0,0.2-0.1,0.4-0.1,0.6c0,0.2,0,0.4,0,0.5c0,0.7,0.2,1.2,0.7,1.6c0.5,0.3,1.1,0.5,1.8,0.5
		c0.7,0,1.3-0.1,1.9-0.4c0.6-0.3,1.1-0.6,1.6-1.1c0.5-0.4,0.8-1,1.2-1.5c0.3-0.6,0.5-1.2,0.7-1.8l1.7-8.2h2.4l-3.1,14.8H209.7z"/>
	<path class="st0" d="M223.2,190.5l-0.7,3.2h0.1c0.6-1,1.3-1.8,2.2-2.5c0.9-0.7,1.9-1,3.2-1c0.2,0,0.3,0,0.4,0c0.1,0,0.3,0,0.4,0
		l-0.6,2.6c-0.1,0-0.2,0-0.4,0h-0.3c-0.3,0-0.6,0-0.7,0c-0.2,0-0.4,0-0.7,0.1c-0.7,0.2-1.3,0.5-1.8,0.9c-0.5,0.4-1,0.9-1.4,1.5
		c-0.3,0.5-0.6,1-0.8,1.7c-0.2,0.6-0.3,1.2-0.5,1.8l-1.4,6.6h-2.4l3.1-14.8H223.2z"/>
	<path class="st0" d="M234.6,190.5l-3.1,14.8h-2.4l3.1-14.8H234.6z M232.7,187.8l0.6-3h2.5l-0.6,3H232.7z"/>
	<path class="st0" d="M242.6,190.5l-0.5,2.2h0.1c0.6-0.9,1.4-1.5,2.3-1.9c0.9-0.4,1.9-0.6,2.9-0.6c1.4,0,2.4,0.3,3.1,0.9
		c0.7,0.6,1,1.6,1,2.9c0,0.3,0,0.7-0.1,1.3c-0.1,0.5-0.2,1.1-0.3,1.6l-1.8,8.4h-2.4l1.9-8.6c0-0.2,0-0.3,0.1-0.5
		c0-0.2,0.1-0.4,0.1-0.6c0-0.2,0.1-0.4,0.1-0.6c0-0.2,0-0.4,0-0.5c0-0.7-0.3-1.2-0.7-1.6c-0.5-0.3-1.1-0.5-1.8-0.5
		c-0.7,0-1.3,0.2-2,0.5c-0.7,0.3-1.2,0.7-1.7,1.2c-0.4,0.4-0.8,0.8-1,1.4c-0.2,0.5-0.4,1.1-0.6,1.7l-1.7,8.2h-2.4l3.1-14.8H242.6z"
		/>
	<path class="st0" d="M267.4,205.3c-0.2,0.7-0.4,1.3-0.6,1.8c-0.6,1.5-1.5,2.5-2.6,3.2c-1.1,0.6-2.5,0.9-4.1,0.9
		c-0.8,0-1.5-0.1-2.2-0.3c-0.7-0.2-1.3-0.4-1.8-0.8c-0.5-0.4-1-0.8-1.3-1.4c-0.3-0.6-0.5-1.3-0.5-2.1h2.4c0,0.5,0.2,0.9,0.4,1.2
		c0.2,0.3,0.5,0.6,0.8,0.7c0.3,0.2,0.7,0.3,1.2,0.4c0.4,0.1,0.9,0.1,1.3,0.1c0.9,0,1.7-0.2,2.3-0.5c0.6-0.3,1.1-0.8,1.5-1.3
		c0.4-0.6,0.7-1.2,0.9-1.9c0.2-0.7,0.4-1.4,0.6-2.2l-0.1-0.1c-0.5,0.8-1.2,1.4-2,1.7c-0.8,0.3-1.7,0.5-2.6,0.5
		c-0.9,0-1.7-0.1-2.4-0.4c-0.7-0.3-1.3-0.7-1.7-1.3c-0.5-0.5-0.8-1.2-1-1.9c-0.2-0.7-0.4-1.6-0.4-2.5c0-1.1,0.2-2.2,0.5-3.3
		c0.4-1.1,0.9-2.1,1.5-2.9c0.7-0.9,1.5-1.6,2.4-2.1c1-0.5,2-0.8,3.2-0.8c0.6,0,1.1,0.1,1.6,0.2c0.5,0.1,1,0.3,1.4,0.6
		c0.4,0.3,0.8,0.6,1.1,0.9c0.3,0.4,0.5,0.8,0.6,1.2v0.1h0.1l0.5-2.7h2.3l-2.7,12.6C267.8,203.9,267.6,204.6,267.4,205.3
		 M258.1,200.8c0.2,0.5,0.4,0.9,0.7,1.3c0.3,0.4,0.7,0.7,1.1,0.9c0.5,0.2,1,0.3,1.6,0.3c0.9,0,1.7-0.2,2.4-0.7
		c0.7-0.5,1.2-1,1.7-1.7c0.4-0.7,0.8-1.5,1-2.3c0.2-0.8,0.3-1.6,0.3-2.4c0-1.2-0.3-2.1-0.9-2.8c-0.6-0.7-1.6-1.1-2.8-1.1
		c-0.9,0-1.6,0.2-2.3,0.7c-0.6,0.5-1.2,1.1-1.6,1.8c-0.4,0.7-0.8,1.5-1,2.3c-0.2,0.8-0.3,1.6-0.3,2.2
		C257.9,199.8,258,200.3,258.1,200.8"/>
	<polygon class="st0" points="301.2,184.8 300.8,187.1 289.4,187.1 288.1,193.6 298.6,193.6 298.2,195.9 287.6,195.9 286.1,203 
		297.6,203 297.1,205.2 282.9,205.2 287.2,184.8 	"/>
	<polygon class="st0" points="303.6,190.5 306.4,190.5 308.6,195.8 313,190.5 316,190.5 309.6,197.6 313.4,205.2 310.6,205.2 
		307.9,199.2 302.9,205.2 300,205.2 306.9,197.4 	"/>
	<path class="st0" d="M328.4,193c-0.6-0.5-1.3-0.8-2.3-0.8c-0.9,0-1.8,0.2-2.5,0.6c-0.7,0.4-1.3,1-1.8,1.6c-0.5,0.7-0.8,1.4-1.1,2.2
		c-0.2,0.8-0.4,1.6-0.4,2.4c0,0.6,0.1,1.1,0.2,1.6c0.1,0.5,0.3,1,0.6,1.3c0.3,0.4,0.7,0.7,1.1,0.9c0.5,0.2,1,0.3,1.7,0.3
		c1,0,1.9-0.3,2.7-0.8c0.7-0.6,1.3-1.3,1.6-2.2h2.4c-0.4,1.7-1.2,3-2.4,3.8c-1.2,0.9-2.6,1.3-4.3,1.3c-2,0-3.5-0.6-4.6-1.7
		c-1-1.1-1.5-2.7-1.5-4.7c0-1.2,0.2-2.3,0.5-3.4c0.4-1.1,0.9-2.1,1.6-2.9c0.7-0.9,1.6-1.5,2.6-2c1-0.5,2.2-0.8,3.5-0.8
		c1.7,0,3,0.4,4,1.2c1,0.8,1.5,2.1,1.6,3.8h-2.4C329.2,194.2,328.9,193.5,328.4,193"/>
	<path class="st0" d="M337.1,199.9c0,0.6,0.1,1.1,0.3,1.5c0.2,0.4,0.5,0.8,0.9,1.1c0.4,0.3,0.8,0.5,1.2,0.7c0.5,0.2,0.9,0.2,1.4,0.2
		c1.1,0,2-0.2,2.7-0.7c0.7-0.5,1.2-1.2,1.6-2.1h2.4c-0.2,0.8-0.5,1.5-0.9,2.2c-0.4,0.6-0.9,1.1-1.5,1.5c-0.6,0.4-1.3,0.7-2,0.9
		c-0.7,0.2-1.5,0.3-2.3,0.3c-1.2,0-2.2-0.2-3-0.6c-0.8-0.4-1.5-0.8-1.9-1.4c-0.5-0.6-0.8-1.2-1-1.9c-0.2-0.7-0.3-1.4-0.3-2
		c0-1.4,0.2-2.7,0.6-3.9c0.4-1.2,1-2.2,1.7-3c0.7-0.8,1.5-1.5,2.4-1.9c0.9-0.5,1.9-0.7,2.9-0.7c2.2,0,3.8,0.6,4.8,1.7
		c1,1.1,1.5,2.8,1.5,4.8c0,0.4,0,0.7-0.1,1.1c-0.1,0.3-0.1,0.6-0.1,0.8h-11.1C337.1,199,337.1,199.4,337.1,199.9 M346,194.9
		c-0.1-0.5-0.3-1-0.6-1.3c-0.3-0.4-0.6-0.7-1.1-0.9c-0.5-0.2-1-0.4-1.7-0.4c-0.7,0-1.3,0.1-1.9,0.3c-0.6,0.2-1.1,0.5-1.5,0.9
		c-0.4,0.4-0.8,0.8-1.1,1.3c-0.3,0.5-0.5,1-0.7,1.6h8.6C346.2,195.9,346.1,195.4,346,194.9"/>
	<polygon class="st0" points="358,184.8 353.7,205.2 351.3,205.2 355.6,184.8 	"/>
	<polygon class="st0" points="366.1,184.8 361.8,205.2 359.4,205.2 363.7,184.8 	"/>
	<path class="st0" d="M370.3,199.9c0,0.6,0.1,1.1,0.3,1.5c0.2,0.4,0.5,0.8,0.9,1.1c0.4,0.3,0.8,0.5,1.2,0.7c0.5,0.2,0.9,0.2,1.4,0.2
		c1.1,0,2-0.2,2.7-0.7c0.7-0.5,1.2-1.2,1.6-2.1h2.4c-0.2,0.8-0.5,1.5-0.9,2.2c-0.4,0.6-0.9,1.1-1.5,1.5c-0.6,0.4-1.3,0.7-2,0.9
		c-0.7,0.2-1.5,0.3-2.3,0.3c-1.2,0-2.2-0.2-3-0.6c-0.8-0.4-1.5-0.8-1.9-1.4c-0.5-0.6-0.8-1.2-1-1.9c-0.2-0.7-0.3-1.4-0.3-2
		c0-1.4,0.2-2.7,0.6-3.9c0.4-1.2,1-2.2,1.7-3c0.7-0.8,1.5-1.5,2.4-1.9c0.9-0.5,1.9-0.7,2.9-0.7c2.2,0,3.8,0.6,4.8,1.7
		c1,1.1,1.5,2.8,1.5,4.8c0,0.4,0,0.7-0.1,1.1c-0.1,0.3-0.1,0.6-0.1,0.8h-11.1C370.3,199,370.3,199.4,370.3,199.9 M379.2,194.9
		c-0.1-0.5-0.3-1-0.6-1.3c-0.3-0.4-0.6-0.7-1.1-0.9c-0.5-0.2-1-0.4-1.7-0.4c-0.7,0-1.3,0.1-1.9,0.3c-0.6,0.2-1.1,0.5-1.5,0.9
		s-0.8,0.8-1.1,1.3c-0.3,0.5-0.5,1-0.7,1.6h8.6C379.3,195.9,379.3,195.4,379.2,194.9"/>
	<path class="st0" d="M390,190.5l-0.5,2.2h0.1c0.6-0.9,1.4-1.5,2.3-1.9c0.9-0.4,1.9-0.6,2.9-0.6c1.4,0,2.4,0.3,3.1,0.9
		c0.7,0.6,1,1.6,1,2.9c0,0.3,0,0.7-0.1,1.3c-0.1,0.5-0.2,1.1-0.3,1.6l-1.8,8.4h-2.4l1.9-8.6c0-0.2,0-0.3,0.1-0.5
		c0-0.2,0.1-0.4,0.1-0.6c0-0.2,0.1-0.4,0.1-0.6c0-0.2,0-0.4,0-0.5c0-0.7-0.2-1.2-0.7-1.6c-0.5-0.3-1.1-0.5-1.8-0.5
		c-0.7,0-1.3,0.2-2,0.5c-0.7,0.3-1.2,0.7-1.7,1.2c-0.4,0.4-0.8,0.8-1,1.4c-0.2,0.5-0.4,1.1-0.6,1.7l-1.7,8.2h-2.4l3.1-14.8H390z"/>
	<path class="st0" d="M413.3,193c-0.6-0.5-1.3-0.8-2.3-0.8c-0.9,0-1.8,0.2-2.5,0.6c-0.7,0.4-1.3,1-1.8,1.6c-0.5,0.7-0.8,1.4-1.1,2.2
		c-0.2,0.8-0.4,1.6-0.4,2.4c0,0.6,0.1,1.1,0.2,1.6c0.1,0.5,0.3,1,0.6,1.3c0.3,0.4,0.7,0.7,1.1,0.9c0.5,0.2,1,0.3,1.7,0.3
		c1,0,1.9-0.3,2.7-0.8c0.7-0.6,1.3-1.3,1.6-2.2h2.4c-0.4,1.7-1.2,3-2.4,3.8c-1.2,0.9-2.6,1.3-4.3,1.3c-2,0-3.5-0.6-4.6-1.7
		c-1-1.1-1.5-2.7-1.5-4.7c0-1.2,0.2-2.3,0.5-3.4c0.4-1.1,0.9-2.1,1.6-2.9c0.7-0.9,1.6-1.5,2.6-2c1-0.5,2.2-0.8,3.5-0.8
		c1.7,0,3,0.4,4,1.2c1,0.8,1.5,2.1,1.6,3.8h-2.4C414.2,194.2,413.9,193.5,413.3,193"/>
	<path class="st0" d="M422.1,199.9c0,0.6,0.1,1.1,0.3,1.5c0.2,0.4,0.5,0.8,0.9,1.1c0.4,0.3,0.8,0.5,1.2,0.7c0.5,0.2,0.9,0.2,1.4,0.2
		c1.1,0,2-0.2,2.7-0.7c0.7-0.5,1.2-1.2,1.6-2.1h2.4c-0.2,0.8-0.5,1.5-0.9,2.2c-0.4,0.6-0.9,1.1-1.5,1.5c-0.6,0.4-1.2,0.7-2,0.9
		c-0.7,0.2-1.5,0.3-2.3,0.3c-1.2,0-2.2-0.2-3-0.6c-0.8-0.4-1.5-0.8-1.9-1.4c-0.5-0.6-0.8-1.2-1-1.9c-0.2-0.7-0.3-1.4-0.3-2
		c0-1.4,0.2-2.7,0.6-3.9c0.4-1.2,1-2.2,1.7-3c0.7-0.8,1.5-1.5,2.4-1.9c0.9-0.5,1.9-0.7,2.9-0.7c2.2,0,3.8,0.6,4.8,1.7
		c1,1.1,1.5,2.8,1.5,4.8c0,0.4,0,0.7-0.1,1.1c-0.1,0.3-0.1,0.6-0.1,0.8h-11.1C422.1,199,422.1,199.4,422.1,199.9 M431,194.9
		c-0.1-0.5-0.3-1-0.6-1.3c-0.3-0.4-0.6-0.7-1.1-0.9c-0.5-0.2-1-0.4-1.7-0.4c-0.7,0-1.3,0.1-1.9,0.3c-0.6,0.2-1.1,0.5-1.5,0.9
		c-0.4,0.4-0.8,0.8-1.1,1.3c-0.3,0.5-0.5,1-0.7,1.6h8.6C431.1,195.9,431.1,195.4,431,194.9"/>
	<path class="st1" d="M96.3,67.7l1.2,2.6c16.3-8.8,38.3-7.2,53.4,5.2c15.3,12,22.3,34.3,15.7,53.8c8.2-18.8,3.4-42.9-12.4-57.6
		c-15.5-14.9-40.4-19.4-61-10.5l1.2,2.7c-11.8,5.2-21.7,14.9-27.3,26.7c-5.7,11.7-7.3,25.5-4.4,38.3c2.8,12.9,10.1,24.8,20.4,33.2
		c10.3,8.5,23.4,13.3,36.8,13.9c13.4,0.6,27-3.2,38.2-10.7c11.3-7.4,20.1-18.8,24.7-31.5c9.9-25.6,2.1-56.8-19-75.1
		c19.9,19.8,24.4,50.5,13.5,73c6.3-24.4-4.3-50-22.8-62.2c17.2,13.8,24.6,39,17.2,60.4c-3.5,10.7-10.4,20.3-19.6,26.8
		c-9.2,6.6-20.6,10.3-32,10.1c-11.4-0.1-23-3.9-32.1-10.9c-9.2-7-15.9-17.2-18.8-28.5c-2.9-11.3-2-23.7,2.9-34.5
		C76.9,82,85.6,72.9,96.3,67.7"/>
	<path class="st0" d="M164.3,159.8c-14.2,13.9-36.3,18.6-55.1,12.3c-18.8-6-34-22.6-37.5-42.2c-3.8-19.5,4.6-40.9,21.1-52.1
		c16.4-11.6,39.6-11.4,56.1-0.2c-12.8-9.7-30.8-12.9-47-7.5c-16.2,5.2-29.5,19.1-34.6,36c5-20.8,23-38.2,44.5-41.4
		c21.3-3.7,43.9,6.3,55.7,24.3c6.6,10.9,8.9,24,6.7,36.1c-2.1,12.1-8.8,23.2-18.3,30.4c-9.5,7.3-21.6,10.5-32.9,9.1
		c-11.4-1.3-21.9-7.1-29-15.4c8,7.5,18.7,11.7,29.2,11.7c10.5,0.1,20.7-4,27.9-11c15-14,15.7-38.2,4-52.6
		c-8.6-13.2-25.4-20.6-40.9-17.8c-15.6,2.3-28.7,15-32.5,30.4c2.3-12.8,11.1-24.9,23.7-30.6c12.5-5.9,28.3-5.2,41,2.2
		c-15-10.2-36.2-10.4-51.1,0.2C80.3,91.6,72.6,111.1,76.1,129c3.1,18,17.1,33.2,34.5,38.8c17.3,5.8,37.5,1.5,50.6-11.3L164.3,159.8z
		"/>
	<path class="st0" d="M312.5,165.7l-32,1.6l-1.2-1.1l-1.2-17.2c-3.6,2.9-6.9,5.7-10,8.4c-3.1,2.7-6.4,5-10,7
		c-2.8,1.5-5.7,2.7-8.8,3.7c-3.1,0.9-6.6,1.4-10.4,1.4c-5.6,0-10.7-1.1-15.3-3.4c-4-2-7.1-4.8-9.3-8.5c-0.9-1.5-1.7-3.1-2.4-4.7
		c-0.7-1.6-1.2-3.4-1.5-5.4c-0.3-2-0.5-4.2-0.7-6.8c-0.2-2.5-0.2-5.5-0.2-8.8V92.1c0-8-0.8-13.4-2.3-16.3c-1.5-2.9-4.6-4.4-9.1-4.4
		h-4.6V66l34.8-2.1l1.4,1.1c-0.3,2.6-0.6,4.8-0.8,6.5c-0.2,1.8-0.3,3-0.3,3.8c-0.5,7.3-0.7,14.7-0.7,22.1v22.1
		c0,7.3,0.3,12.8,1,16.5c0.7,3.7,1.9,6.9,3.6,9.6c1.2,2,2.9,3.5,4.9,4.6c3.4,2.4,7.2,3.7,11.4,3.7c4.2,0,8.3-0.8,12.3-2.5
		c4-1.7,7.3-4,10-7.1c2.5-2.5,4.1-5.2,5-8.4c0.9-3.1,1.3-8.1,1.3-14.8L277,92.1c-0.2-8-1-13.4-2.4-16.3c-1.5-2.9-4.4-4.4-8.9-4.4
		H261V66l34.8-2.1l1.4,1.1c-0.3,2.6-0.6,4.8-0.8,6.5c-0.2,1.8-0.3,3.1-0.3,4c-0.6,8.6-0.9,17.1-0.8,25.6c0.1,8.5,0.1,16.9,0.1,25.3
		c0,4.4,0.1,8.4,0.3,11.8c0.2,3.4,0.5,6.5,0.8,9.1c0.8,4.7,2.1,8.1,3.8,10c1.8,1.9,4.2,2.9,7.3,2.9h4.9V165.7z"/>
	<path class="st0" d="M372.6,166.6h-39v-5.5h1.4c1.7,0,2.9-0.4,3.5-1.1c0.6-0.8,1.1-2.4,1.4-5c0.2-1.4,0.3-3.2,0.5-5.4
		c0.2-2.2,0.3-4.7,0.3-7.3c0.1-2.7,0.2-5.5,0.2-8.4c0.1-2.9,0.1-5.7,0.1-8.3V30.2c0-7.9-0.8-13.4-2.4-16.3c-1.6-2.9-4.6-4.4-8.9-4.4
		H325V4.1L359.8,2l1.4,1.1c-0.5,3.7-0.8,6.8-1,9.5c-0.2,2.7-0.4,5.4-0.5,8.1c-0.1,2.7-0.2,5.9-0.2,9.4c-0.1,3.5-0.1,7.9-0.1,13.3
		v100.9c0,6.3,0.7,10.6,2,13.1c1.3,2.4,3.7,3.7,7.1,3.7h4.2V166.6z"/>
	<path class="st0" d="M435.5,75.9c-16.1,3.6-19.2,11.2-22.2,26.2l47.1,0c1.8,0-5.4-19.3-11.7-23.1C445.2,76.9,440.3,74.8,435.5,75.9
		 M484,142.9l-11.5,10.9c-5.9,5.5-12.4,9.1-18.6,11.8c-6.2,2.7-12.5,4-19,4c-6.6,0-12.8-1.3-18.3-3.9c-5.6-2.6-10.4-6.2-14.4-10.8
		c-4-4.6-7.2-10-9.4-16.4c-2.2-6.3-3.4-13.3-3.4-20.7c0-8.1,1.3-15.6,3.8-22.5c2.5-6.9,6.1-12.8,10.7-17.8c4.6-5,10-8.9,16.2-11.7
		c6.3-2.8,13.1-4.2,20.5-4.2c11.3,0,20.1,2.9,26.4,8.7c6.3,5.8,15.9,28.7,16.2,39.4l-70.4,0c-1.5,11-2,30.5,16,38.8
		c4.7,2.2,9.9,3.2,15.4,3.2c4.3,0,8.5-0.5,12.6-1.5c4.1-1,7.7-2.7,11.2-4.7l12-6.6L484,142.9z"/>
	<path class="st0" d="M49.6,65c-0.9,6.7-1.4,13.4-1.5,20.1c-0.1,6.6-0.1,13.4-0.1,20.3v25.2c0,4.4,0,8,0.1,10.7c0.1,2.7,0.1,5,0.1,7
		c0,2,0,3.7,0.1,5.3c0.1,1.5,0.1,3.3,0.1,5.3c0,5.2-0.3,9.8-0.9,13.9c-0.6,4.1-1.7,7.8-3.2,11.4c-2.6,6.4-7.1,12.8-13.4,19.3
		c-6.3,6.4-13.8,12.3-22.5,17.6L6,222.3l-0.2,0.2l-4.6-7.3l3.7-2.7c4-3.1,7.8-6.6,11.2-10.8c3.5-4.1,6.2-8.6,8.2-13.5
		c1.4-3.5,2.4-7.3,3.1-11.5c0.7-4.1,1.3-8.4,1.7-12.8c0.3-4.4,0.4-8.8,0.4-13.1c-0.1-4.3-0.1-8.3-0.1-12.2
		c0.2-6.6,0.2-12.7,0.2-18.5v-14.8V92.1c0-8-0.9-13.4-2.7-16.3c-1.8-2.9-5.1-4.4-10.1-4.4h-4.6V66l36.2-2.1L49.6,65z"/>
	<path class="st1" d="M34.6,11.8c7,0,12.7,6,12.7,13.5c0,7.4-5.7,13.5-12.7,13.5c-7,0-12.7-6-12.7-13.5
		C21.9,17.9,27.6,11.8,34.6,11.8"/>
</g>
</svg>
